PathFileType	4	(X/Y/Z)	C:/Users/opensim2020/Desktop/walking_exp_matlab/subject01_walking06_straight_01.trc																																																																																																																															
DataRate	CameraRate	NumFrames	NumMarkers	Units	OrigDataRate	OrigDataStartFrame	OrigNumFrames																																																																																																																											
100	100	8	43	mm	100	828	251																																																																																																																											
Frame#	Time	LFHD			RFHD			LBHD			RBHD			C7			T10			CLAV			STRN			RBAK			LSHO			LUPA			LELB			LFRM			LWRA			LWRB			LFIN			RSHO			RUPA			RELB			RFRM			RWRA			RWRB			RFIN			LASI			RASI			LPSI			RPSI			LTHI			LKNE			LTIB			LANK			LHEE			LTOE			RTHI			RKNE			RTIB			RANK			RHEE			RTOE			*39			*40			*41			*42		
		X1	Y1	Z1	X2	Y2	Z2	X3	Y3	Z3	X4	Y4	Z4	X5	Y5	Z5	X6	Y6	Z6	X7	Y7	Z7	X8	Y8	Z8	X9	Y9	Z9	X10	Y10	Z10	X11	Y11	Z11	X12	Y12	Z12	X13	Y13	Z13	X14	Y14	Z14	X15	Y15	Z15	X16	Y16	Z16	X17	Y17	Z17	X18	Y18	Z18	X19	Y19	Z19	X20	Y20	Z20	X21	Y21	Z21	X22	Y22	Z22	X23	Y23	Z23	X24	Y24	Z24	X25	Y25	Z25	X26	Y26	Z26	X27	Y27	Z27	X28	Y28	Z28	X29	Y29	Z29	X30	Y30	Z30	X31	Y31	Z31	X32	Y32	Z32	X33	Y33	Z33	X34	Y34	Z34	X35	Y35	Z35	X36	Y36	Z36	X37	Y37	Z37	X38	Y38	Z38	X39	Y39	Z39	X40	Y40	Z40	X41	Y41	Z41	X42	Y42	Z42	X43	Y43	Z43
																																																																																																																																		
63	0.62	-886.23065	1676.68921	1477.81018	-854.86218	1682.25403	1587.92407	-989.46576	1609.65247	1501.87915	-959.2486	1613.87952	1618.95288	-1001.36627	1434.65576	1526.44922	-1044.75439	1143.14172	1513.1167	-859.4682	1364.20496	1517.22839	-822.367	1207.6803	1502.63818	-1060.01428	1240.12878	1595.00928	-923.66779	1406.23853	1361.61621	-969.52441	1229.17041	1267.26099	-995.40826	1082.3324	1260.04785	-971.54694	971.44641	1232.41138	-915.49194	843.83405	1250.72449	-967.52283	849.3006	1221.32568	-931.67822	771.79559	1214.8623	-917.10706	1384.47046	1671.08862	-949.63855	1179.14966	1769.42236	-927.49377	1054.32471	1770.51013	-867.72638	946.61218	1791.29346	-760.26215	859.646	1761.81604	-800.96875	844.39197	1800.21448	-741.44946	784.32275	1795.53589	-873.43481	937.27948	1396.18994	-877.43011	932.01398	1614.0625	-1058.8363	950.52209	1440.76147	-1062.56848	954.76233	1585.62756	-816.98389	624.26508	1324.03149	-792.55023	491.72998	1339.27661	-876.58197	322.40463	1338.44031	-946.86145	117.37768	1395.125	-985.79999	95.20444	1457.24121	-821.07092	48.53791	1369.38867	-959.9223	604.46155	1666.27246	-964.53601	446.2037	1643.05627	-1032.66455	282.17303	1647.08521	-1066.80811	76.81394	1596.80884	-1113.25269	42.14418	1542.87341	-927.43262	30.62597	1604.84766	-877.19586	1713.51599	1569.89514	1973.09814	1023.38446	-3101.84155	2012.53833	1022.02502	-3140.7749	NaN	NaN	NaN
64	0.63	-877.27039	1676.14612	1477.89258	-845.86536	1681.79236	1587.89404	-980.44232	1609.01892	1502.0946	-950.17804	1613.39673	1619.07959	-992.57227	1434.28772	1526.86316	-1036.29773	1142.7384	1513.76855	-850.7926	1363.57849	1517.36987	-813.98016	1206.96362	1502.87305	-1051.38843	1239.86743	1595.7865	-915.30231	1405.62659	1361.82996	-962.51935	1228.6283	1267.7821	-989.96936	1082.34875	1260.76538	-967.65961	971.24341	1232.7262	-913.51794	842.65979	1250.36926	-965.72485	849.08423	1221.1062	-931.13672	770.77332	1214.5011	-908.14429	1384.01965	1671.34216	-940.33258	1178.68628	1769.93103	-917.16528	1054.02979	1771.25037	-856.06335	947.00507	1791.92993	-747.51294	861.48267	1762.24707	-787.94519	845.58478	1800.651	-727.63434	786.39478	1795.87695	-865.14264	936.71973	1396.61133	-869.08368	931.30981	1614.54822	-1050.73413	950.2749	1441.37207	-1054.55579	954.96368	1586.42468	-807.94366	624.22375	1324.59497	-783.27759	491.56738	1339.95398	-859.68097	318.2847	1337.76843	-918.48236	108.57587	1393.67212	-957.12787	84.84296	1455.31946	-788.85327	47.66781	1368.35645	-954.2597	604.16357	1666.40698	-960.82806	445.99036	1643.14124	-1030.64307	282.92715	1647.36609	-1066.34583	77.6034	1596.64709	-1112.66553	43.11584	1542.42834	-927.25629	30.5357	1604.76208	-868.05603	1713.00854	1569.93835	1973.06812	1023.49713	-3101.77441	2012.56226	1022.02539	-3140.52393	NaN	NaN	NaN
65	0.64	-868.42828	1675.53772	1477.74023	-836.80426	1681.13342	1587.71545	-971.5849	1608.4729	1502.08936	-941.08936	1612.89221	1619.05151	-983.76312	1433.87878	1527.18713	-1027.8938	1142.39807	1514.3252	-841.96393	1362.89832	1517.4762	-805.48834	1206.19189	1502.96948	-1042.68079	1239.50171	1596.41345	-906.84827	1404.8866	1361.93689	-955.31018	1228.12646	1268.1875	-984.23798	1082.21875	1261.30408	-963.55548	970.94336	1232.87329	-911.37518	841.39337	1250.13855	-963.44275	848.83594	1220.85132	-930.2572	769.79816	1214.18237	-899.20227	1383.49231	1671.38721	-930.83325	1178.21033	1770.2959	-906.93005	1053.64453	1771.87146	-844.53564	947.32532	1792.43884	-734.97125	863.14233	1762.55554	-775.13397	846.71985	1801.01379	-714.0531	788.27881	1796.08716	-856.78778	936.10504	1396.87708	-860.64832	930.53436	1614.99573	-1042.51526	949.82953	1441.98206	-1045.7677	954.34918	1586.89758	-799.53217	623.95026	1325.04065	-774.71838	491.18896	1340.48987	-843.14807	314.5094	1336.96948	-889.85706	101.33946	1391.58057	-927.75458	74.87143	1452.82361	-756.84747	47.72317	1366.74036	-948.6922	603.93658	1666.54761	-957.18066	445.78375	1643.25562	-1028.36914	283.11508	1647.17456	-1065.74255	78.31995	1596.39185	-1112.56934	44.56484	1542.48779	-927.08105	30.44963	1604.74731	-859.03259	1712.50305	1569.77002	1973.06189	1023.43268	-3102.0105	2012.52136	1021.94043	-3140.65356	NaN	NaN	NaN
66	0.65	-859.44055	1674.76294	1477.45374	-827.78033	1680.5835	1587.3573	-962.67596	1607.88464	1501.97205	-932.01404	1612.33997	1618.8678	-974.69415	1433.27832	1527.27563	-1019.30725	1141.849	1514.64209	-833.20215	1362.07202	1517.30457	-796.94586	1205.37195	1502.9967	-1033.90088	1239.07629	1596.74463	-898.35913	1404.07104	1361.89063	-948.04974	1227.45374	1268.40967	-977.9848	1081.95325	1261.81836	-959.36456	970.63934	1233.1239	-908.59131	840.20715	1249.64954	-960.82599	848.51758	1220.68079	-928.63196	768.61523	1213.98975	-890.02429	1382.96436	1671.44849	-921.17084	1177.67908	1770.45117	-896.86176	1053.18213	1772.3783	-833.09668	947.52618	1792.87573	-722.69055	864.67792	1762.72168	-762.54449	847.67291	1801.18103	-700.69958	790.11816	1796.27686	-847.99597	935.75031	1397.28381	-852.16821	929.82184	1615.34094	-1033.8999	949.16681	1442.52368	-1037.13953	953.86023	1587.37305	-791.67603	623.2547	1325.38928	-766.83838	490.36142	1341.05957	-827.22083	311.09802	1336.15332	-861.01868	94.12962	1388.9729	-898.04401	65.95662	1449.83545	-724.76477	48.38148	1365.41895	-943.09259	603.92047	1666.70752	-953.66675	445.84579	1643.3833	-1026.36133	283.74945	1647.21606	-1065.36853	79.12487	1596.43616	-1112.00879	45.24685	1542.09399	-926.88135	30.27477	1604.68933	-850.03241	1711.84692	1569.43604	1973.05884	1023.90045	-3102.10986	2012.51807	1021.95386	-3140.46729	NaN	NaN	NaN
67	0.66	-850.55109	1674.06665	1476.98755	-818.80957	1679.91345	1586.90161	-953.7005	1607.19458	1501.6554	-922.96661	1611.70166	1618.5	-965.75269	1432.64429	1527.2146	-1011.0202	1141.57263	1514.97363	-824.32074	1361.25476	1517.12549	-788.37347	1204.4895	1502.86792	-1025.16956	1238.59436	1596.96338	-889.79767	1403.2085	1361.69299	-940.60175	1226.75745	1268.40149	-972.71735	1081.67444	1261.86926	-954.65979	970.2157	1233.11267	-905.64484	838.94391	1249.28833	-957.84277	848.16418	1220.38196	-926.88751	767.67346	1213.66125	-880.94073	1382.28076	1671.32458	-911.763	1177.09839	1770.62915	-886.8476	1052.73755	1772.75916	-821.9187	947.63373	1793.12183	-710.6734	866.0672	1762.80774	-750.29095	848.61475	1801.28894	-687.78595	791.81128	1796.39282	-839.75458	934.88123	1397.26392	-843.56097	929.13757	1615.54883	-1025.40283	948.44519	1442.93604	-1028.59998	953.19196	1587.79358	-784.1825	622.17462	1325.5553	-759.59973	489.18607	1341.5387	-811.80768	307.88306	1335.29407	-832.0351	88.02407	1386.203	-868.65955	58.24719	1446.4574	-693.10742	49.81772	1364.20862	-937.60034	603.89178	1666.79858	-950.1394	445.83765	1643.54785	-1024.4635	284.60883	1647.30725	-1064.99524	80.01641	1596.33069	-1111.8949	46.9924	1542.28455	-926.69885	30.23314	1604.78235	-841.00171	1711.14771	1568.92114	1973.13135	1023.28052	-3101.84131	2012.58154	1022.08575	-3140.52612	NaN	NaN	NaN
68	0.67	-841.25928	1673.38159	1476.28137	-809.77936	1679.15112	1586.29395	-944.73004	1606.37659	1501.18945	-913.94104	1610.99841	1617.99951	-956.83081	1431.99939	1527.06616	-1002.25684	1140.72717	1515.0321	-815.45526	1360.44727	1516.8103	-779.76306	1203.55115	1502.65564	-1016.29358	1237.97168	1597.02197	-881.13263	1402.24463	1361.39832	-933.09326	1225.92847	1268.36792	-966.25214	1081.24841	1262.0907	-949.43219	969.60925	1232.95154	-902.29712	837.68616	1248.97595	-954.41376	847.69763	1220.04578	-924.53778	766.76294	1213.25244	-871.88025	1381.55188	1670.98413	-902.16827	1176.51257	1770.63904	-876.87823	1052.20813	1772.99048	-810.94257	947.64465	1793.29309	-698.92639	867.25665	1762.76587	-738.25653	849.43921	1801.28284	-675.17041	793.32813	1796.38342	-831.06433	934.24249	1397.29822	-834.88416	928.44727	1615.70374	-1016.79712	947.52417	1443.2876	-1019.76392	952.43573	1587.9646	-777.08588	620.72461	1325.56982	-752.77271	487.68243	1341.90759	-796.67883	304.68457	1334.43994	-803.55682	83.06935	1383.41956	-838.65692	50.95421	1443.12927	-662.25861	52.07462	1362.93091	-932.03845	603.95227	1666.89868	-946.67389	445.86908	1643.65894	-1022.58881	285.47165	1647.4054	-1064.43506	80.86883	1596.42297	-1111.45313	47.82291	1542.0752	-926.63702	30.13912	1604.79736	-831.95264	1710.41919	1568.31628	1973.04749	1023.95172	-3101.92871	2012.51575	1022.04071	-3140.7146	NaN	NaN	NaN
69	0.68	-832.52667	1672.32275	1475.67224	-800.70056	1678.36536	1585.47754	-935.73993	1605.47559	1500.55017	-904.85291	1610.24133	1617.36902	-947.79346	1431.18689	1526.73779	-993.56299	1139.96887	1515.02039	-806.56335	1359.46936	1516.29785	-771.03088	1202.57959	1502.33582	-1007.39264	1237.27917	1596.89954	-872.39832	1401.15039	1360.89673	-925.40845	1224.94983	1268.16516	-959.44373	1080.59656	1262.10925	-944.28406	969.07715	1232.88062	-898.46765	836.48846	1248.52368	-950.4458	847.1557	1219.51538	-921.70422	765.69934	1212.90796	-862.77356	1380.85278	1670.54163	-892.58368	1175.91956	1770.62292	-866.98785	1051.61682	1773.12659	-800.1369	947.59558	1793.37207	-687.43036	868.2923	1762.6394	-726.61591	849.97314	1801.21399	-662.87244	794.61798	1796.30713	-822.17657	933.63873	1397.27905	-826.10321	927.75122	1615.7489	-1008.00311	946.52325	1443.45874	-1011.04926	951.48108	1588.02478	-770.32617	618.88733	1325.39661	-746.1037	485.83298	1342.15723	-781.69989	301.63196	1333.43958	-775.46185	79.4469	1380.71997	-809.27448	45.37532	1440.17615	-632.50336	55.44538	1361.54285	-926.55481	604.20093	1667.08789	-943.08002	445.94525	1643.76294	-1020.65106	286.25601	1647.45923	-1064.08655	81.88612	1596.48511	-1111.27551	49.6585	1542.33301	-926.48047	29.96407	1604.8927	-822.88141	1709.5874	1567.50549	1973.13367	1023.43689	-3101.82227	2012.69751	1022.146	-3140.48218	NaN	NaN	NaN
70	0.69	-823.51971	1671.26331	1474.75	-791.62842	1677.49622	1584.50317	-926.59296	1604.45959	1499.77893	-895.74066	1609.40723	1616.53516	-938.75159	1430.30725	1526.21533	-984.78809	1139.14087	1514.84558	-797.56812	1358.46265	1515.70313	-762.3067	1201.51306	1501.91162	-998.46698	1236.53625	1596.68726	-863.59265	1400.03687	1360.26404	-917.61237	1223.94019	1267.88745	-952.51501	1079.91675	1262.11316	-938.38489	968.31769	1232.54138	-894.24725	835.16638	1247.86182	-946.14801	846.53363	1219.17224	-918.51892	764.69421	1212.48035	-853.50714	1380.00928	1669.92419	-882.8548	1175.33484	1770.40247	-857.15234	1051.01392	1773.13489	-789.45502	947.4165	1793.30347	-676.17902	869.10645	1762.39978	-715.14136	850.38025	1800.94556	-650.85565	795.76794	1796.22217	-812.82751	933.18903	1397.24146	-817.20349	927.02826	1615.71997	-999.10492	945.43732	1443.44202	-1002.11108	950.61871	1587.90564	-763.78693	616.71173	1325.21008	-739.37646	483.8761	1342.11414	-766.67615	298.9379	1332.24365	-748.41351	76.98563	1378.4165	-780.97693	41.38718	1437.40833	-604.12708	59.52254	1359.81189	-920.70349	604.0675	1666.9845	-939.2616	446.10773	1643.88843	-1018.46259	287.19827	1647.42493	-1063.55811	83.03193	1596.57483	-1110.73547	50.67698	1542.1311	-926.49487	30.08623	1604.8175	-813.92615	1708.61902	1566.44263	1973.11182	1023.36664	-3101.75513	2012.5531	1022.09033	-3140.73291	NaN	NaN	NaN
